HIERARCHY
ROOT Hips
{
	OFFSET -0.001795 -0.223333 0.028219
	CHANNELS 6 Xposition Yposition Zposition Zrotation Yrotation Xrotation 
	JOINT LeftUpLeg
	{
		OFFSET 0.069520 -0.091406 -0.006815
		CHANNELS 3 Zrotation Yrotation Xrotation
		JOINT LeftLeg
		{
			OFFSET 0.034277 -0.375199 -0.004496
			CHANNELS 3 Zrotation Yrotation Xrotation
			JOINT LeftFoot
			{
				OFFSET -0.013596 -0.397961 -0.043693
				CHANNELS 3 Zrotation Yrotation Xrotation
				JOINT LeftToe
				{
					OFFSET 0.026358 -0.055791 0.119288
					CHANNELS 3 Zrotation Yrotation Xrotation
					End Site
					{
						OFFSET 0.000000 0.000000 0.000000
					}
				}
			}
		}
	}
	JOINT RightUpLeg
	{
		OFFSET -0.067670 -0.090522 -0.004320
		CHANNELS 3 Zrotation Yrotation Xrotation
		JOINT RightLeg
		{
			OFFSET -0.038290 -0.382569 -0.008850
			CHANNELS 3 Zrotation Yrotation Xrotation
			JOINT RightFoot
			{
				OFFSET 0.015774 -0.398415 -0.042312
				CHANNELS 3 Zrotation Yrotation Xrotation
				JOINT RightToe
				{
					OFFSET -0.025372 -0.048144 0.123348
					CHANNELS 3 Zrotation Yrotation Xrotation
					End Site
					{
						OFFSET 0.000000 0.000000 0.000000
					}
				}
			}
		}
	}
	JOINT Spine
	{
		OFFSET -0.002533 0.108963 -0.026696
		CHANNELS 3 Zrotation Yrotation Xrotation
		JOINT Spine1
		{
			OFFSET 0.005487 0.135180 0.001092
			CHANNELS 3 Zrotation Yrotation Xrotation
			JOINT Spine2
			{
				OFFSET 0.001457 0.052922 0.025425
				CHANNELS 3 Zrotation Yrotation Xrotation
				JOINT Neck
				{
					OFFSET -0.002778 0.213870 -0.042857
					CHANNELS 3 Zrotation Yrotation Xrotation
					JOINT Head
					{
						OFFSET 0.005152 0.064970 0.051349
						CHANNELS 3 Zrotation Yrotation Xrotation
						End Site
						{
							OFFSET 0.000000 0.000000 0.000000
						}
					}
				}
				JOINT LeftShoulder
				{
					OFFSET 0.078845 0.121749 -0.034090
					CHANNELS 3 Zrotation Yrotation Xrotation
					JOINT LeftArm
					{
						OFFSET 0.090977 0.030469 -0.008868
						CHANNELS 3 Zrotation Yrotation Xrotation
						JOINT LeftForeArm
						{
							OFFSET 0.259612 -0.012772 -0.027456
							CHANNELS 3 Zrotation Yrotation Xrotation
							JOINT LeftHand
							{
								OFFSET 0.249234 0.008986 -0.001171
								CHANNELS 3 Zrotation Yrotation Xrotation
								End Site
								{
									OFFSET 0.000000 0.000000 0.000000
								}
							}
						}
					}
				}
				JOINT RightShoulder
				{
					OFFSET -0.081759 0.118833 -0.038615
					CHANNELS 3 Zrotation Yrotation Xrotation
					JOINT RightArm
					{
						OFFSET -0.096012 0.032551 -0.009143
						CHANNELS 3 Zrotation Yrotation Xrotation
						JOINT RightForeArm
						{
							OFFSET -0.253742 -0.013329 -0.021401
							CHANNELS 3 Zrotation Yrotation Xrotation
							JOINT RightHand
							{
								OFFSET -0.255298 0.007772 -0.005559
								CHANNELS 3 Zrotation Yrotation Xrotation
								End Site
								{
									OFFSET 0.000000 0.000000 0.000000
								}
							}
						}
					}
				}
			}
		}
	}
}
MOTION
Frames: 13
Frame Time: 0.050000
0.000000 0.930199 0.000000 -0.783213 -2.036343 0.574415 -0.106352 0.243078 2.570155 -0.780451 0.022541 2.550799 1.886526 4.047513 0.065254 0.000000 0.000000 0.000000 -0.439732 0.361988 -3.660166 -0.815208 0.270024 3.853308 0.970126 1.508648 1.624414 0.000000 0.000000 0.000000 4.006344 -0.058116 0.252934 -1.438178 0.674128 3.890378 -2.984744 3.739963 0.118893 7.089050 -3.630533 -10.496573 0.000000 0.000000 0.000000 -23.511518 -7.534473 0.763059 -17.117224 0.937084 -1.696039 3.312449 -24.692327 0.097630 0.000000 0.000000 0.000000 20.358661 2.414752 0.221325 26.843057 -2.976832 -3.082437 5.718110 35.593951 3.118562 0.000000 0.000000 0.000000 
0.000631 0.929014 0.001110 -0.916086 -1.871277 0.722880 0.561246 0.298174 3.445117 -1.723403 0.180114 0.837985 1.721789 3.635134 -0.107682 0.000000 0.000000 0.000000 -0.288556 0.347822 -3.505478 -0.892917 0.261099 3.466392 0.844070 1.382245 1.312248 0.000000 0.000000 0.000000 4.043237 -0.050886 0.123669 -1.498902 0.701046 4.457257 -3.694278 4.639773 -0.608147 9.565840 -4.811695 -12.240962 0.000000 0.000000 0.000000 -22.774828 -8.133003 0.739243 -16.443778 0.161859 -1.452967 5.052561 -22.874297 -0.286599 0.000000 0.000000 0.000000 20.737473 1.799530 0.173331 27.303334 -3.952800 -3.369449 6.716435 34.992496 3.441936 0.000000 0.000000 0.000000 
0.002019 0.928390 0.002174 -1.020994 -1.470946 0.869899 0.562033 0.259058 3.027902 -1.596224 0.153011 1.369460 1.679007 3.377335 -0.542255 0.000000 0.000000 0.000000 -0.170593 0.373313 -3.754219 -1.022946 0.297584 3.850313 0.619127 0.979788 1.050496 0.000000 0.000000 0.000000 4.955954 -0.068270 0.177996 -1.422526 0.663112 2.773047 -4.586766 4.897090 0.746415 9.774109 -5.080061 -11.655886 0.000000 0.000000 0.000000 -21.416523 -8.542152 0.948970 -18.060022 0.530638 -1.660697 5.050821 -22.837935 -0.319394 0.000000 0.000000 0.000000 21.283321 2.101491 0.564344 27.485503 -4.216556 -3.566638 6.580526 36.463395 3.612355 0.000000 0.000000 0.000000 
0.004302 0.928165 0.003487 -1.171631 -0.771947 1.265545 0.308439 0.236692 2.703796 -0.952020 0.074713 1.210943 1.500242 2.884756 -0.787897 0.000000 0.000000 0.000000 -0.218700 0.423427 -4.253915 -0.837214 0.291446 4.272893 0.337648 0.305378 1.021473 0.000000 0.000000 0.000000 4.797140 -0.045275 -0.169392 -1.023070 0.442938 3.376707 -4.654730 3.986252 -0.017613 9.868070 -5.054182 -12.063911 0.000000 0.000000 0.000000 -21.990848 -7.628342 0.514305 -17.483029 0.240046 -1.574397 6.006744 -22.679867 -0.487479 0.000000 0.000000 0.000000 21.305791 2.305066 0.508049 27.084751 -4.178623 -3.421295 5.790089 36.299809 3.306297 0.000000 0.000000 0.000000 
0.007998 0.927673 0.005176 -1.371857 -0.954127 1.393592 -0.143192 0.224434 2.386696 -0.273877 -0.024926 1.775237 1.730770 3.212999 -1.231182 0.000000 0.000000 0.000000 -0.422726 0.467333 -4.726889 -0.540686 0.285046 5.041612 0.357910 0.424807 0.889388 0.000000 0.000000 0.000000 5.181592 -0.061544 -0.051197 -1.051393 0.463171 3.122763 -4.721460 4.537425 -0.415141 10.228033 -5.461536 -11.067560 0.000000 0.000000 0.000000 -22.279991 -8.076410 0.560215 -17.488532 0.498627 -1.552639 5.499647 -23.214191 -0.410278 0.000000 0.000000 0.000000 21.164712 1.509905 0.177286 26.805292 -4.334364 -3.423056 6.270342 37.173069 3.599417 0.000000 0.000000 0.000000 
0.013068 0.926928 0.007230 -1.601765 -1.060770 1.320853 -0.643509 0.266758 2.639556 0.415353 -0.111195 1.749905 1.900992 3.407623 -1.694866 0.000000 0.000000 0.000000 -0.685021 0.570632 -5.853724 -0.217057 0.342953 7.455950 0.253540 0.367112 0.510872 0.000000 0.000000 0.000000 5.529483 -0.111448 0.476143 -0.817489 0.342540 3.271233 -4.852108 4.500776 -0.931443 9.913457 -5.178171 -11.322213 0.000000 0.000000 0.000000 -21.977068 -7.092644 0.024523 -18.498278 0.149249 -1.592333 5.613102 -23.797066 -0.458385 0.000000 0.000000 0.000000 20.976442 1.211254 -0.011483 26.764550 -3.225978 -3.199805 5.945423 36.173278 3.390072 0.000000 0.000000 0.000000 
0.019019 0.926716 0.009359 -1.463479 -1.347042 1.223436 -1.211057 0.332028 3.065485 0.359415 -0.093319 1.454423 1.973850 3.580440 -1.690411 0.000000 0.000000 0.000000 -1.492575 0.675927 -7.259916 0.234753 0.387709 10.347862 0.255046 0.448311 0.366390 0.000000 0.000000 0.000000 5.749896 -0.158107 0.977093 -1.268257 0.583304 2.676361 -4.670265 4.455203 -0.217834 10.003545 -5.176427 -11.814918 0.000000 0.000000 0.000000 -22.204897 -6.705658 -0.099258 -19.425283 0.121344 -1.722306 5.794214 -25.016534 -0.524037 0.000000 0.000000 0.000000 21.283064 1.084757 -0.144350 26.635382 -2.507226 -3.084031 5.178540 35.467083 3.059159 0.000000 0.000000 0.000000 
0.025150 0.925967 0.011586 -1.423367 -1.477664 1.021080 -1.472456 0.426929 3.863437 -0.019054 -0.021174 0.701546 1.971452 3.523174 -1.840460 0.000000 0.000000 0.000000 -1.411881 0.906011 -9.800884 -0.619944 0.820796 15.510355 0.108151 0.088820 0.340133 0.000000 0.000000 0.000000 6.046375 -0.244620 1.883833 -1.728580 0.818540 2.745840 -4.725189 4.222307 -0.068811 10.306643 -5.311687 -12.232048 0.000000 0.000000 0.000000 -21.882813 -6.520011 -0.073735 -21.137620 0.229334 -1.930218 5.468732 -27.202952 -0.504156 0.000000 0.000000 0.000000 21.965924 0.912582 -0.340208 27.244355 -1.157375 -2.913786 3.195808 34.375170 2.355124 0.000000 0.000000 0.000000 
0.030597 0.925096 0.014521 -1.363638 -1.874410 0.689156 -1.844844 0.553482 4.855846 -0.232383 0.027134 -0.027631 2.074878 3.716527 -1.977543 0.000000 0.000000 0.000000 -1.316060 1.266953 -13.635795 -1.302258 1.470608 23.062714 0.250043 -0.277644 1.667736 0.000000 0.000000 0.000000 5.967020 -0.321982 2.827724 -1.981814 0.953172 2.855261 -4.520115 4.121101 0.372669 9.963962 -4.926525 -13.212065 0.000000 0.000000 0.000000 -21.932233 -6.180276 -0.137638 -22.917518 -0.376208 -2.062457 4.437008 -28.443092 -0.266578 0.000000 0.000000 0.000000 22.163626 1.040341 -0.362028 28.223186 0.157786 -2.771622 2.223035 32.678696 1.934431 0.000000 0.000000 0.000000 
0.034763 0.924217 0.019339 -1.354432 -1.894273 0.152721 -2.079233 0.724818 6.276629 -0.309575 0.063929 -0.937761 2.021157 3.552770 -2.099443 0.000000 0.000000 0.000000 -1.001317 1.750012 -18.293764 -1.499930 2.170964 32.133737 0.325035 -2.207092 6.005486 0.000000 0.000000 0.000000 6.002030 -0.468420 4.517266 -2.353584 1.140631 2.011053 -4.287473 3.721545 1.642571 9.656782 -4.550613 -14.562120 0.000000 0.000000 0.000000 -22.192562 -6.337306 0.133728 -24.699354 -0.797166 -2.267437 4.643492 -29.144625 -0.307847 0.000000 0.000000 0.000000 22.771825 1.093410 -0.466591 29.333531 1.277077 -2.692451 -0.127153 31.988091 1.236308 0.000000 0.000000 0.000000 
0.037514 0.923675 0.027071 -1.386084 -1.124439 -0.718698 -1.769446 0.918306 8.306268 -0.811797 0.144549 -2.005001 1.578389 2.554256 -2.049401 0.000000 0.000000 0.000000 -1.026548 2.102485 -22.165155 -0.550624 2.111228 39.019719 -0.201307 -6.624322 15.663538 0.000000 0.000000 0.000000 5.760128 -0.575757 5.989127 -1.405581 0.654407 2.636981 -5.165697 3.200659 1.554271 9.826433 -4.468227 -15.467043 0.000000 0.000000 0.000000 -23.026813 -6.052420 -0.155676 -25.359059 -0.701712 -2.327076 3.369169 -29.829750 0.008780 0.000000 0.000000 0.000000 23.839493 1.097261 -0.479292 29.799221 1.555685 -2.697071 0.621673 31.510619 1.412596 0.000000 0.000000 0.000000 
0.039262 0.922937 0.039011 -1.786541 -0.885733 -1.506911 -1.392930 1.083130 10.215457 -0.741444 0.149840 -2.436390 1.465281 2.211623 -2.237308 0.000000 0.000000 0.000000 -0.832034 2.507055 -25.977917 0.806855 1.474264 40.347746 -2.988853 -13.840735 32.085487 0.000000 0.000000 0.000000 5.667762 -0.698744 7.572705 -1.332316 0.630344 1.237862 -4.248439 2.414237 3.657196 9.255643 -3.939923 -17.335119 0.000000 0.000000 0.000000 -24.226323 -6.754486 0.543224 -26.985273 -0.387183 -2.736542 2.132074 -31.025763 0.407373 0.000000 0.000000 0.000000 23.789272 0.826387 -0.870353 31.180786 0.864919 -3.005704 1.881601 32.776232 1.781535 0.000000 0.000000 0.000000 
0.039895 0.921210 0.055568 -1.927144 0.116603 -1.274799 -1.522509 1.232782 11.684831 0.121047 0.115143 -3.661715 1.117645 1.326926 -2.385596 0.000000 0.000000 0.000000 -0.901397 2.631881 -28.026201 2.222922 0.327442 28.067577 -15.831138 -26.516628 50.463823 0.000000 0.000000 0.000000 5.514467 -0.666726 7.204129 -0.559502 0.231900 1.694309 -4.244412 0.733291 3.822977 7.920908 -3.186512 -17.794745 0.000000 0.000000 0.000000 -24.532037 -5.853453 0.397744 -29.577510 -0.757426 -3.054682 0.583389 -32.196656 0.931774 0.000000 0.000000 0.000000 22.543276 0.848811 -1.143949 34.520818 -0.909582 -3.627494 2.639789 33.550794 1.980260 0.000000 0.000000 0.000000 
